<?xml version="1.0" encoding="UTF-8" standalone="no"?>
<!DOCTYPE svg PUBLIC "-//W3C//DTD SVG 1.1//EN" "http://www.w3.org/Graphics/SVG/1.1/DTD/svg11.dtd">
<svg version="1.1" xmlns="http://www.w3.org/2000/svg" xmlns:xlink="http://www.w3.org/1999/xlink" preserveAspectRatio="xMidYMid meet" viewBox="0 0 90 90" width="90" height="90"><defs><path d="M88.97 6C90.34 4.63 90.34 2.4 88.97 1.03C87.6 -0.34 85.37 -0.34 84 1.03C81.4 3.63 68.4 16.63 45 40.03C21.6 16.63 8.6 3.63 6 1.03C4.63 -0.34 2.4 -0.34 1.03 1.03C-0.34 2.4 -0.34 4.63 1.03 6C3.63 8.6 16.63 21.6 40.03 45C16.63 68.4 3.63 81.4 1.03 84C-0.34 85.37 -0.34 87.6 1.03 88.97C1.72 89.66 2.62 90 3.52 90C4.42 90 5.32 89.66 6 88.97C8.6 86.37 21.6 73.37 45 49.97C68.4 73.37 81.4 86.37 84 88.97C84.68 89.66 85.58 90 86.48 90C87.38 90 88.28 89.66 88.97 88.97C90.34 87.6 90.34 85.37 88.97 84C86.37 81.4 73.37 68.4 49.97 45C73.37 21.6 86.37 8.6 88.97 6Z" id="d68leLh3Lk"></path></defs><g><g><g><use xlink:href="#d68leLh3Lk" opacity="1" fill="#ffffff" fill-opacity="1"></use></g></g></g></svg>