<?xml version="1.0" encoding="UTF-8" standalone="no"?>
<!DOCTYPE svg PUBLIC "-//W3C//DTD SVG 1.1//EN" "http://www.w3.org/Graphics/SVG/1.1/DTD/svg11.dtd">
<svg version="1.1" xmlns="http://www.w3.org/2000/svg" xmlns:xlink="http://www.w3.org/1999/xlink" preserveAspectRatio="xMidYMid meet" viewBox="0 0 90 90" width="90" height="90"><defs><path d="M3.75 48.75C1.68 48.75 0 47.07 0 45C0 42.93 1.68 41.25 3.75 41.25C12 41.25 78 41.25 86.25 41.25C88.32 41.25 90 42.93 90 45C90 47.07 88.32 48.75 86.25 48.75C69.75 48.75 12 48.75 3.75 48.75Z" id="akw0UWuKu"></path><path d="M3.75 20C1.68 20 0 18.32 0 16.25C0 14.18 1.68 12.5 3.75 12.5C12 12.5 78 12.5 86.25 12.5C88.32 12.5 90 14.18 90 16.25C90 18.32 88.32 20 86.25 20C69.75 20 12 20 3.75 20Z" id="b2Fexl5kJ5"></path><path d="M3.75 77.5C1.68 77.5 0 75.82 0 73.75C0 71.68 1.68 70 3.75 70C12 70 78 70 86.25 70C88.32 70 90 71.68 90 73.75C90 75.82 88.32 77.5 86.25 77.5C69.75 77.5 12 77.5 3.75 77.5Z" id="dfTRRkP5p"></path></defs><g><g><g><use xlink:href="#akw0UWuKu" opacity="1" fill="#ffffff" fill-opacity="1"></use></g><g><use xlink:href="#b2Fexl5kJ5" opacity="1" fill="#ffffff" fill-opacity="1"></use></g><g><use xlink:href="#dfTRRkP5p" opacity="1" fill="#ffffff" fill-opacity="1"></use></g></g></g></svg>