<?xml version="1.0" encoding="UTF-8" standalone="no"?>
<!DOCTYPE svg PUBLIC "-//W3C//DTD SVG 1.1//EN" "http://www.w3.org/Graphics/SVG/1.1/DTD/svg11.dtd">
<svg version="1.1" xmlns="http://www.w3.org/2000/svg" xmlns:xlink="http://www.w3.org/1999/xlink" preserveAspectRatio="xMidYMid meet" viewBox="0 0 48 48" width="48" height="48"><defs><path d="M8.5 14.84L40.12 14.84L40.12 33.45L8.5 33.45L8.5 14.84Z" id="drtQ6qUHm"></path><path d="M0 24C0 37.23 10.77 48 24 48C37.23 48 48 37.23 48 24C48 10.77 37.23 0 24 0C10.77 0 0 10.77 0 24ZM37.41 32.46C36.96 32.46 36.51 32.29 36.17 31.94C35.35 31.13 31.3 27.08 24 19.78C16.7 27.08 12.65 31.13 11.83 31.94C11.15 32.63 10.04 32.63 9.35 31.94C8.66 31.26 8.66 30.15 9.35 29.46C10.69 28.12 21.42 17.4 22.76 16.05C23.44 15.37 24.55 15.37 25.24 16.05C26.58 17.4 37.31 28.12 38.65 29.46C39.33 30.15 39.33 31.26 38.65 31.94C38.31 32.29 37.86 32.46 37.41 32.46Z" id="e7XKaFEOHb"></path></defs><g><g><g><use xlink:href="#drtQ6qUHm" opacity="1" fill="#070b28" fill-opacity="1"></use></g><g><use xlink:href="#e7XKaFEOHb" opacity="1" fill="#ffffff" fill-opacity="1"></use></g></g></g></svg>