<svg width="80" height="80" viewBox="0 0 80 80" fill="none" xmlns="http://www.w3.org/2000/svg">
<path d="M8 62.2222H48.3922C49.2354 62.2222 49.7001 61.2428 49.1668 60.5897L43.2336 53.3246C42.6639 52.627 41.8108 52.2222 40.91 52.2222H18.5C16.8431 52.2222 15.5 50.8791 15.5 49.2222V23C15.5 21.3431 16.8431 20 18.5 20H56.8333C58.4902 20 59.8333 21.3431 59.8333 23V48.3225C59.8333 49.2662 58.6462 49.6847 58.0544 48.9495L49.0673 37.7855C48.4978 37.078 47.6385 36.6667 46.7304 36.6667H36.2554C35.4155 36.6667 34.9498 37.6395 35.4765 38.2937L60.0994 68.8812C60.6689 69.5886 61.5281 70 62.4363 70H72.9112C73.7512 70 74.2169 69.0272 73.6902 68.3729L66.8517 59.8779C66.5154 59.4602 66.5685 58.8516 66.9719 58.4984L69.9921 55.8543C70.2089 55.6645 70.3333 55.3902 70.3333 55.1019V13C70.3333 11.3431 68.9902 10 67.3333 10H8C6.34315 10 5 11.3432 5 13V59.2222C5 60.8791 6.34315 62.2222 8 62.2222Z" fill="white" stroke="white"/>
</svg>
