<svg width="2269" height="1500" viewBox="0 0 2269 1500" fill="none" xmlns="http://www.w3.org/2000/svg">
<path d="M60 1C104 119 140.235 305.209 438.5 231.5C786.5 145.5 642.514 348.733 994.5 322C1389.5 292 1793.5 113 2021.5 263.5C2219.22 394.011 1670.5 561 1592 588C1281.35 694.846 2171.5 943.5 1836 1017C1500.5 1090.5 1221.93 810.873 1050 958C849 1130 682.5 459 478.5 655C372.185 757.145 226.2 1044.6 1 1017" stroke="#F0AD4E"/>
<path d="M2209.2 1499.55C2165.2 1381.55 2128.96 1195.34 1830.7 1269.05C1482.7 1355.05 1626.68 1151.82 1274.7 1178.55C879.696 1208.55 475.696 1387.55 247.696 1237.05C49.9793 1106.54 598.696 939.553 677.196 912.553C987.841 805.707 97.6963 557.053 433.196 483.553C768.696 410.053 1047.26 689.68 1219.2 542.553C1420.2 370.553 1586.7 1041.55 1790.7 845.553C1897.01 743.407 2043 455.953 2268.2 483.553" stroke="#F0AD4E"/>
</svg>
